<?xml version="1.0" standalone="no"?>
<!DOCTYPE svg PUBLIC "-//W3C//DTD SVG 20010904//EN"
 "http://www.w3.org/TR/2001/REC-SVG-20010904/DTD/svg10.dtd">
<svg version="1.0" xmlns="http://www.w3.org/2000/svg"
 width="500.000000pt" height="500.000000pt" viewBox="0 0 500.000000 500.000000"
 preserveAspectRatio="xMidYMid meet">
<metadata>
Created by potrace 1.14, written by Peter Selinger 2001-2017
</metadata>
<g transform="translate(0.000000,500.000000) scale(0.100000,-0.100000)"
fill="#000000" stroke="none">
<path d="M1362 4892 c-12 -2 -20 -8 -17 -13 3 -5 -1 -6 -9 -3 -41 16 -172 -96
-212 -181 -28 -58 -32 -146 -10 -199 17 -40 64 -77 129 -101 26 -10 47 -20 47
-23 0 -5 -52 -66 -109 -127 -21 -22 -62 -69 -92 -105 -30 -36 -57 -67 -60 -70
-4 -3 -26 -37 -50 -75 -24 -39 -50 -79 -57 -90 -49 -76 -146 -327 -158 -410
-2 -11 -9 -40 -16 -65 -16 -60 -16 -409 0 -470 7 -25 15 -56 18 -70 2 -14 7
-32 10 -40 3 -8 8 -26 10 -39 10 -49 65 -197 101 -269 42 -83 89 -129 143
-138 43 -8 51 -19 38 -54 -8 -25 -14 -28 -58 -28 -28 -1 -65 -9 -88 -21 -79
-40 -223 -206 -258 -296 -13 -35 -16 -64 -11 -133 6 -107 34 -183 97 -272 25
-36 62 -91 81 -124 59 -101 138 -152 294 -189 53 -13 92 -27 88 -31 -4 -4 -1
-11 7 -16 11 -7 5 -10 -21 -10 -23 0 -42 -7 -54 -20 -17 -19 -18 -29 -6 -158
7 -75 17 -138 21 -140 5 -2 6 -10 3 -18 -16 -43 50 -411 91 -499 21 -47 35
-61 98 -101 140 -90 231 -122 256 -91 10 12 26 158 37 337 4 52 9 103 11 112
3 10 25 30 48 46 34 23 43 26 42 13 -2 -23 90 -65 198 -89 50 -11 98 -20 106
-20 8 0 62 -5 120 -12 125 -14 590 -14 710 0 47 5 92 10 100 11 40 2 228 32
247 40 20 7 22 4 27 -34 3 -23 8 -113 11 -200 10 -253 24 -305 89 -332 46 -19
134 -26 180 -14 68 18 99 60 129 174 25 96 69 346 82 470 4 33 8 71 11 85 2
13 6 65 10 115 6 87 5 91 -20 114 -20 19 -23 27 -14 38 6 7 8 16 5 20 -8 7 51
83 65 83 5 0 16 7 24 15 13 13 19 13 42 1 70 -35 233 -8 287 47 52 54 116 144
118 166 1 12 4 21 7 21 9 0 36 67 50 120 6 25 16 61 21 80 9 30 6 43 -15 87
-15 29 -26 57 -26 62 0 5 -3 11 -7 13 -5 2 -21 23 -37 47 -42 65 -104 129
-152 157 -23 14 -45 35 -48 47 -9 33 -7 90 3 106 7 10 3 24 -11 43 -24 34 -18
58 15 58 37 0 110 90 154 188 28 63 71 198 79 251 3 18 7 43 10 55 18 96 25
378 10 476 -20 137 -24 152 -52 238 -72 214 -242 474 -471 722 -38 41 -40 51
-13 75 15 14 29 16 63 12 105 -15 176 67 183 210 5 94 -19 162 -84 230 -81 86
-97 93 -236 94 -68 1 -86 -3 -134 -28 -30 -15 -54 -31 -54 -35 1 -4 -12 -21
-28 -38 -29 -31 -53 -91 -66 -163 -3 -21 -12 -41 -18 -43 -7 -3 -46 11 -87 30
-97 45 -275 98 -414 125 -342 64 -638 64 -1035 -3 -141 -24 -179 -21 -164 12
31 72 4 131 -89 194 -94 64 -155 78 -265 60z"/>
</g>
</svg>
